<svg version="1.1" viewBox="0.0 0.0 768.0 768.0" fill="none" stroke="none" stroke-linecap="square" stroke-miterlimit="10" xmlns:xlink="http://www.w3.org/1999/xlink" xmlns="http://www.w3.org/2000/svg"><clipPath id="p.0"><path d="m0 0l768.0 0l0 768.0l-768.0 0l0 -768.0z" clip-rule="nonzero"/></clipPath><g clip-path="url(#p.0)"><path fill="#000000" fill-opacity="0.0" d="m0 0l768.0 0l0 768.0l-768.0 0z" fill-rule="evenodd"/><g filter="url(#shadowFilter-p.1)"><use xlink:href="#p.1" transform="matrix(1.0 0.0 0.0 1.0 0.0 2.805028083989503)"/></g><defs><filter id="shadowFilter-p.1" filterUnits="userSpaceOnUse"><feGaussianBlur in="SourceAlpha" stdDeviation="6.7076616" result="blur"/><feComponentTransfer in="blur" color-interpolation-filters="sRGB"><feFuncR type="linear" slope="0" intercept="0.0"/><feFuncG type="linear" slope="0" intercept="0.0"/><feFuncB type="linear" slope="0" intercept="0.0"/><feFuncA type="linear" slope="0.75" intercept="0"/></feComponentTransfer></filter></defs><g id="p.1"><defs><linearGradient id="p.2" gradientUnits="userSpaceOnUse" gradientTransform="matrix(26.422419881150198 0.0 0.0 26.422419881150198 0.0 0.0)" spreadMethod="pad" x1="1.2468533176730991" y1="1.3218544678196542" x2="1.2467576689023585" y2="27.744274348796733"><stop offset="0.0" stop-color="#d4e5f5"/><stop offset="0.53" stop-color="#6d9eeb"/><stop offset="1.0" stop-color="#1155cc"/></linearGradient></defs><path fill="url(#p.2)" d="m32.94488 384.0c0 -192.78651 157.17273 -349.07086 351.0551 -349.07086c93.10562 0 182.39783 36.777004 248.23346 102.24048c65.83557 65.463486 102.821655 154.25104 102.821655 246.83038c0 192.7865 -157.17273 349.07086 -351.0551 349.07086c-193.88239 0 -351.0551 -156.28436 -351.0551 -349.07086z" fill-rule="evenodd"/></g><g filter="url(#shadowFilter-p.3)"><use xlink:href="#p.3" transform="matrix(1.0 0.0 0.0 1.0 0.0 9.122661417322826)"/></g><defs><filter id="shadowFilter-p.3" filterUnits="userSpaceOnUse"><feGaussianBlur in="SourceAlpha" stdDeviation="8.109033" result="blur"/><feComponentTransfer in="blur" color-interpolation-filters="sRGB"><feFuncR type="linear" slope="0" intercept="0.0"/><feFuncG type="linear" slope="0" intercept="0.0"/><feFuncB type="linear" slope="0" intercept="0.0"/><feFuncA type="linear" slope="0.25" intercept="0"/></feComponentTransfer></filter></defs><g id="p.3"><defs><linearGradient id="p.4" gradientUnits="userSpaceOnUse" gradientTransform="matrix(12.630527217558583 0.0 0.0 12.630527217558583 0.0 0.0)" spreadMethod="pad" x1="2.152000419672219" y1="3.0379304425568256" x2="2.149428035556682" y2="15.668457398164346"><stop offset="0.0" stop-color="#ffffff"/><stop offset="0.36" stop-color="#d9ead3"/><stop offset="0.75" stop-color="#d9ead3"/><stop offset="1.0" stop-color="#ffffff"/></linearGradient></defs><path fill="url(#p.4)" d="m27.180891 140.97694l16.19467 -70.9827l65.569534 -31.590282l65.569534 31.590282l16.194672 70.9827l-45.3761 56.92392l-72.776215 0z" fill-rule="evenodd"/><path stroke="#00ffff" stroke-width="12.162729658792651" stroke-linejoin="round" stroke-linecap="butt" d="m27.180891 140.97694l16.19467 -70.9827l65.569534 -31.590282l65.569534 31.590282l16.194672 70.9827l-45.3761 56.92392l-72.776215 0z" fill-rule="evenodd"/></g><g filter="url(#shadowFilter-p.5)"><use xlink:href="#p.5" transform="matrix(1.0 0.0 0.0 1.0 0.0 3.082887664041986)"/></g><defs><filter id="shadowFilter-p.5" filterUnits="userSpaceOnUse"><feGaussianBlur in="SourceAlpha" stdDeviation="3.0828876" result="blur"/><feComponentTransfer in="blur" color-interpolation-filters="sRGB"><feFuncR type="linear" slope="0" intercept="0.0"/><feFuncG type="linear" slope="0" intercept="0.0"/><feFuncB type="linear" slope="0" intercept="0.0"/><feFuncA type="linear" slope="0.5" intercept="0"/></feComponentTransfer></filter></defs><g id="p.5"><defs><linearGradient id="p.6" gradientUnits="userSpaceOnUse" gradientTransform="matrix(19.464942770798096 -19.46323905609273 19.46323905609273 19.464942770798096 0.0 0.0)" spreadMethod="pad" x1="-9.583478893097874" y1="10.337155182334138" x2="-9.583549661524028" y2="29.80209795300359"><stop offset="0.0" stop-color="#1076d2"/><stop offset="1.0" stop-color="#093053"/></linearGradient></defs><path fill="url(#p.6)" d="m204.07874 577.18036c-104.6123 -104.6297 -108.86382 -269.99527 -9.496063 -369.35434q88.13263 -88.12491 180.11423 -172.40022q96.440186 89.143936 189.22437 181.94353c104.612305 104.6297 108.86383 269.99527 9.496033 369.3543c-99.36774 99.35907 -264.72626 95.086426 -369.33856 -9.543274z" fill-rule="evenodd"/></g><g filter="url(#shadowFilter-p.7)"><use xlink:href="#p.7" transform="matrix(1.0 0.0 0.0 1.0 0.0 14.090011023622058)"/></g><defs><filter id="shadowFilter-p.7" filterUnits="userSpaceOnUse"><feGaussianBlur in="SourceAlpha" stdDeviation="4.1826177" result="blur"/><feComponentTransfer in="blur" color-interpolation-filters="sRGB"><feFuncR type="linear" slope="0" intercept="0.0"/><feFuncG type="linear" slope="0" intercept="0.0"/><feFuncB type="linear" slope="0" intercept="0.0"/><feFuncA type="linear" slope="0.5" intercept="0"/></feComponentTransfer></filter></defs><g id="p.7"><path fill="#00ff00" d="m227.78735 282.42426c0 -33.151398 69.93985 -60.025925 156.21506 -60.025925c86.27518 0 156.21506 26.874527 156.21506 60.025925l0 240.10364c0 33.151367 -69.93988 60.02594 -156.21506 60.02594c-86.27521 0 -156.21506 -26.874573 -156.21506 -60.02594z" fill-rule="evenodd"/><path fill="#000000" fill-opacity="0.0" d="m540.21747 282.42426c0 33.151398 -69.93988 60.02591 -156.21506 60.02591c-86.27521 0 -156.21506 -26.874512 -156.21506 -60.02591" fill-rule="evenodd"/><path fill="#000000" fill-opacity="0.0" d="m227.78735 282.42426c0 -33.151398 69.93985 -60.025925 156.21506 -60.025925c86.27518 0 156.21506 26.874527 156.21506 60.025925l0 240.10364c0 33.151367 -69.93988 60.02594 -156.21506 60.02594c-86.27521 0 -156.21506 -26.874573 -156.21506 -60.02594z" fill-rule="evenodd"/></g><defs><linearGradient id="p.8" gradientUnits="userSpaceOnUse" gradientTransform="matrix(11.197061328275934 0.0 0.0 11.197061328275934 0.0 0.0)" spreadMethod="pad" x1="20.349893532341344" y1="37.499106767239375" x2="20.34761355595427" y2="48.696167863387785"><stop offset="0.0" stop-color="#ffffff"/><stop offset="0.36" stop-color="#d9ead3"/><stop offset="0.75" stop-color="#d9ead3"/><stop offset="1.0" stop-color="#ffffff"/></linearGradient></defs><path fill="url(#p.8)" d="m227.859 440.82852c0 -11.534515 69.947495 -20.885101 156.23213 -20.885101c86.28461 0 156.23212 9.350586 156.23212 20.885101l0 83.54031c0 11.534546 -69.94751 20.885132 -156.23212 20.885132c-86.28464 0 -156.23213 -9.350586 -156.23213 -20.885132z" fill-rule="evenodd"/><path fill="#000000" fill-opacity="0.0" d="m540.32324 440.82852c0 11.534515 -69.94751 20.88507 -156.23212 20.88507c-86.28464 0 -156.23213 -9.350555 -156.23213 -20.88507" fill-rule="evenodd"/><path fill="#000000" fill-opacity="0.0" d="m227.859 440.82852c0 -11.534515 69.947495 -20.885101 156.23213 -20.885101c86.28461 0 156.23212 9.350586 156.23212 20.885101l0 83.54031c0 11.534546 -69.94751 20.885132 -156.23212 20.885132c-86.28464 0 -156.23213 -9.350586 -156.23213 -20.885132z" fill-rule="evenodd"/><defs><linearGradient id="p.9" gradientUnits="userSpaceOnUse" gradientTransform="matrix(15.532038582315186 0.0 0.0 15.532038582315186 0.0 0.0)" spreadMethod="pad" x1="14.670257525947212" y1="16.370316963707868" x2="14.667094349576805" y2="31.9023552239248"><stop offset="0.0" stop-color="#ffffff"/><stop offset="0.36" stop-color="#b6d7a8"/><stop offset="0.75" stop-color="#b6d7a8"/><stop offset="1.0" stop-color="#ffffff"/></linearGradient></defs><path fill="url(#p.9)" d="m227.859 294.52478c0 -22.200043 69.947495 -40.196747 156.23213 -40.196747c86.28461 0 156.23212 17.996704 156.23212 40.196747l0 160.78708c0 22.200043 -69.94751 40.196747 -156.23212 40.196747c-86.28464 0 -156.23213 -17.996704 -156.23213 -40.196747z" fill-rule="evenodd"/><path fill="#000000" fill-opacity="0.0" d="m540.32324 294.52478c0 22.200073 -69.94751 40.196777 -156.23212 40.196777c-86.28464 0 -156.23213 -17.996704 -156.23213 -40.196777" fill-rule="evenodd"/><path fill="#000000" fill-opacity="0.0" d="m227.859 294.52478c0 -22.200043 69.947495 -40.196747 156.23213 -40.196747c86.28461 0 156.23212 17.996704 156.23212 40.196747l0 160.78708c0 22.200043 -69.94751 40.196747 -156.23212 40.196747c-86.28464 0 -156.23213 -17.996704 -156.23213 -40.196747z" fill-rule="evenodd"/><defs><linearGradient id="p.10" gradientUnits="userSpaceOnUse" gradientTransform="matrix(11.197060412622747 0.0 0.0 11.197060412622747 0.0 0.0)" spreadMethod="pad" x1="20.349895196478553" y1="18.265423409351314" x2="20.347615219905034" y2="29.462483589846478"><stop offset="0.0" stop-color="#ffffff"/><stop offset="0.36" stop-color="#93c47d"/><stop offset="0.69" stop-color="#93c47d"/><stop offset="1.0" stop-color="#d9ead3"/></linearGradient></defs><path fill="url(#p.10)" d="m227.859 225.46777c0 -11.534515 69.947495 -20.885086 156.23213 -20.885086c86.28461 0 156.23212 9.350571 156.23212 20.885086l0 83.540344c0 11.534515 -69.94751 20.885101 -156.23212 20.885101c-86.28464 0 -156.23213 -9.350586 -156.23213 -20.885101z" fill-rule="evenodd"/><path fill="#000000" fill-opacity="0.0" d="m540.32324 225.46777c0 11.534515 -69.94751 20.885086 -156.23212 20.885086c-86.28464 0 -156.23213 -9.350571 -156.23213 -20.885086" fill-rule="evenodd"/><path fill="#000000" fill-opacity="0.0" d="m227.859 225.46777c0 -11.534515 69.947495 -20.885086 156.23213 -20.885086c86.28461 0 156.23212 9.350571 156.23212 20.885086l0 83.540344c0 11.534515 -69.94751 20.885101 -156.23212 20.885101c-86.28464 0 -156.23213 -9.350586 -156.23213 -20.885101z" fill-rule="evenodd"/><g filter="url(#shadowFilter-p.11)"><use xlink:href="#p.11" transform="matrix(1.0 0.0 0.0 1.0 0.0 13.230192913385835)"/></g><defs><filter id="shadowFilter-p.11" filterUnits="userSpaceOnUse"><feGaussianBlur in="SourceAlpha" stdDeviation="4.0" result="blur"/><feComponentTransfer in="blur" color-interpolation-filters="sRGB"><feFuncR type="linear" slope="0" intercept="0.047058824"/><feFuncG type="linear" slope="0" intercept="0.20392157"/><feFuncB type="linear" slope="0" intercept="0.23921569"/><feFuncA type="linear" slope="0.75" intercept="0"/></feComponentTransfer></filter></defs><g id="p.11"><defs><radialGradient id="p.12" gradientUnits="userSpaceOnUse" gradientTransform="matrix(12.491828037422522 0.0 0.0 12.491828037422522 0.0 0.0)" spreadMethod="pad" cx="30.73999773823572" cy="38.88178093748875" fx="30.73999773823572" fy="38.88178093748875" r="12.491827964782715"><stop offset="0.0" stop-color="#f3f3f3"/><stop offset="0.4" stop-color="#cccccc"/><stop offset="0.69" stop-color="#999999"/><stop offset="1.0" stop-color="#666666"/></radialGradient></defs><path fill="url(#p.12)" d="m239.12035 447.05783c0 -10.671997 64.86427 -19.323364 144.87843 -19.323364c80.01413 0 144.87842 8.651367 144.87842 19.323364l0 77.293365c0 10.671997 -64.86429 19.323364 -144.87842 19.323364c-80.01416 0 -144.87843 -8.651367 -144.87843 -19.323364z" fill-rule="evenodd"/><path fill="#000000" fill-opacity="0.0" d="m528.8772 447.05783c0 10.671997 -64.86429 19.323334 -144.87842 19.323334c-80.01416 0 -144.87843 -8.651337 -144.87843 -19.323334" fill-rule="evenodd"/><path fill="#000000" fill-opacity="0.0" d="m239.12035 447.05783c0 -10.671997 64.86427 -19.323364 144.87843 -19.323364c80.01413 0 144.87842 8.651367 144.87842 19.323364l0 77.293365c0 10.671997 -64.86429 19.323364 -144.87842 19.323364c-80.01416 0 -144.87843 -8.651367 -144.87843 -19.323364z" fill-rule="evenodd"/><path stroke="#134f5c" stroke-width="2.0" stroke-linejoin="round" stroke-linecap="butt" d="m528.8772 447.05783c0 10.671997 -64.86429 19.323334 -144.87842 19.323334c-80.01416 0 -144.87843 -8.651337 -144.87843 -19.323334" fill-rule="evenodd"/><path stroke="#134f5c" stroke-width="2.0" stroke-linejoin="round" stroke-linecap="butt" d="m239.12035 447.05783c0 -10.671997 64.86427 -19.323364 144.87843 -19.323364c80.01413 0 144.87842 8.651367 144.87842 19.323364l0 77.293365c0 10.671997 -64.86429 19.323364 -144.87842 19.323364c-80.01416 0 -144.87843 -8.651367 -144.87843 -19.323364z" fill-rule="evenodd"/></g><g filter="url(#shadowFilter-p.13)"><use xlink:href="#p.13" transform="matrix(1.0 0.0 0.0 1.0 0.0 13.230192913385835)"/></g><defs><filter id="shadowFilter-p.13" filterUnits="userSpaceOnUse"><feGaussianBlur in="SourceAlpha" stdDeviation="4.0" result="blur"/><feComponentTransfer in="blur" color-interpolation-filters="sRGB"><feFuncR type="linear" slope="0" intercept="0.047058824"/><feFuncG type="linear" slope="0" intercept="0.20392157"/><feFuncB type="linear" slope="0" intercept="0.23921569"/><feFuncA type="linear" slope="0.75" intercept="0"/></feComponentTransfer></filter></defs><g id="p.13"><defs><radialGradient id="p.14" gradientUnits="userSpaceOnUse" gradientTransform="matrix(12.491828037422522 0.0 0.0 12.491828037422522 0.0 0.0)" spreadMethod="pad" cx="30.73999773823572" cy="30.906305076996844" fx="30.73999773823572" fy="30.906305076996844" r="12.491827964782715"><stop offset="0.0" stop-color="#f3f3f3"/><stop offset="0.4" stop-color="#cccccc"/><stop offset="0.69" stop-color="#999999"/><stop offset="1.0" stop-color="#666666"/></radialGradient></defs><path fill="url(#p.14)" d="m239.12035 347.42957c0 -10.671997 64.86427 -19.323364 144.87843 -19.323364c80.01413 0 144.87842 8.651367 144.87842 19.323364l0 77.293365c0 10.671997 -64.86429 19.323364 -144.87842 19.323364c-80.01416 0 -144.87843 -8.651367 -144.87843 -19.323364z" fill-rule="evenodd"/><path fill="#000000" fill-opacity="0.0" d="m528.8772 347.42957c0 10.671967 -64.86429 19.323334 -144.87842 19.323334c-80.01416 0 -144.87843 -8.651367 -144.87843 -19.323334" fill-rule="evenodd"/><path fill="#000000" fill-opacity="0.0" d="m239.12035 347.42957c0 -10.671997 64.86427 -19.323364 144.87843 -19.323364c80.01413 0 144.87842 8.651367 144.87842 19.323364l0 77.293365c0 10.671997 -64.86429 19.323364 -144.87842 19.323364c-80.01416 0 -144.87843 -8.651367 -144.87843 -19.323364z" fill-rule="evenodd"/><path stroke="#134f5c" stroke-width="2.0" stroke-linejoin="round" stroke-linecap="butt" d="m528.8772 347.42957c0 10.671967 -64.86429 19.323334 -144.87842 19.323334c-80.01416 0 -144.87843 -8.651367 -144.87843 -19.323334" fill-rule="evenodd"/><path stroke="#134f5c" stroke-width="2.0" stroke-linejoin="round" stroke-linecap="butt" d="m239.12035 347.42957c0 -10.671997 64.86427 -19.323364 144.87843 -19.323364c80.01413 0 144.87842 8.651367 144.87842 19.323364l0 77.293365c0 10.671997 -64.86429 19.323364 -144.87842 19.323364c-80.01416 0 -144.87843 -8.651367 -144.87843 -19.323364z" fill-rule="evenodd"/></g><g filter="url(#shadowFilter-p.15)"><use xlink:href="#p.15" transform="matrix(1.0 0.0 0.0 1.0 0.0 13.230192913385835)"/></g><defs><filter id="shadowFilter-p.15" filterUnits="userSpaceOnUse"><feGaussianBlur in="SourceAlpha" stdDeviation="4.0" result="blur"/><feComponentTransfer in="blur" color-interpolation-filters="sRGB"><feFuncR type="linear" slope="0" intercept="0.047058824"/><feFuncG type="linear" slope="0" intercept="0.20392157"/><feFuncB type="linear" slope="0" intercept="0.23921569"/><feFuncA type="linear" slope="0.75" intercept="0"/></feComponentTransfer></filter></defs><g id="p.15"><defs><radialGradient id="p.16" gradientUnits="userSpaceOnUse" gradientTransform="matrix(12.491828037422522 0.0 0.0 12.491828037422522 0.0 0.0)" spreadMethod="pad" cx="30.73999773823572" cy="22.93082917448272" fx="30.73999773823572" fy="22.93082917448272" r="12.491827964782715"><stop offset="0.0" stop-color="#f3f3f3"/><stop offset="0.4" stop-color="#cccccc"/><stop offset="0.69" stop-color="#999999"/><stop offset="1.0" stop-color="#666666"/></radialGradient></defs><path fill="url(#p.16)" d="m239.12035 247.80128c0 -10.671997 64.86427 -19.323349 144.87843 -19.323349c80.01413 0 144.87842 8.651352 144.87842 19.323349l0 77.29338c0 10.671997 -64.86429 19.323364 -144.87842 19.323364c-80.01416 0 -144.87843 -8.651367 -144.87843 -19.323364z" fill-rule="evenodd"/><path fill="#000000" fill-opacity="0.0" d="m528.8772 247.80128c0 10.671982 -64.86429 19.323349 -144.87842 19.323349c-80.01416 0 -144.87843 -8.651367 -144.87843 -19.323349" fill-rule="evenodd"/><path fill="#000000" fill-opacity="0.0" d="m239.12035 247.80128c0 -10.671997 64.86427 -19.323349 144.87843 -19.323349c80.01413 0 144.87842 8.651352 144.87842 19.323349l0 77.29338c0 10.671997 -64.86429 19.323364 -144.87842 19.323364c-80.01416 0 -144.87843 -8.651367 -144.87843 -19.323364z" fill-rule="evenodd"/><path stroke="#134f5c" stroke-width="2.0" stroke-linejoin="round" stroke-linecap="butt" d="m528.8772 247.80128c0 10.671982 -64.86429 19.323349 -144.87842 19.323349c-80.01416 0 -144.87843 -8.651367 -144.87843 -19.323349" fill-rule="evenodd"/><path stroke="#134f5c" stroke-width="2.0" stroke-linejoin="round" stroke-linecap="butt" d="m239.12035 247.80128c0 -10.671997 64.86427 -19.323349 144.87843 -19.323349c80.01413 0 144.87842 8.651352 144.87842 19.323349l0 77.29338c0 10.671997 -64.86429 19.323364 -144.87842 19.323364c-80.01416 0 -144.87843 -8.651367 -144.87843 -19.323364z" fill-rule="evenodd"/></g><path fill="#ffffff" d="m520.52405 493.8347c0 16.68161 -61.1008 30.204742 -136.47244 30.204742c-75.37164 0 -136.47246 -13.523132 -136.47246 -30.204742c21.581985 12.530853 75.88103 20.811066 136.47246 20.811066c60.59143 0 114.89044 -8.280212 136.47244 -20.811066z" fill-rule="evenodd"/><path fill="#ffffff" d="m520.47107 294.76923c0 16.68161 -61.10083 30.204712 -136.47247 30.204712c-75.37164 0 -136.47244 -13.523102 -136.47244 -30.204712c24.46634 11.807983 77.77847 19.377838 136.47244 19.377838c58.694 0 112.0061 -7.5698547 136.47247 -19.377838z" fill-rule="evenodd"/><path fill="#ffffff" d="m520.47107 394.30063c0 16.68161 -61.10083 30.204742 -136.47247 30.204742c-75.37164 0 -136.47244 -13.523132 -136.47244 -30.204742c24.520355 11.793915 77.81381 19.350372 136.47244 19.350372c58.65863 0 111.95209 -7.5564575 136.47247 -19.350372z" fill-rule="evenodd"/></g></svg>